# Blender v2.78 (sub 0) OBJ File: ''
# www.blender.org
mtllib skinnyTrackball.mtl
o Solid.001
v 0.846398 0.000000 -0.523103
v 0.854904 0.000000 -0.528360
v -0.846398 0.000000 -0.523103
v -0.854904 0.000000 -0.528360
v 0.846398 0.000000 0.523103
v 0.854904 0.000000 0.528360
v -0.846398 0.000000 0.523103
v -0.854904 0.000000 0.528360
v 0.523103 0.846398 0.000000
v 0.528360 0.854904 0.000000
v 0.523103 -0.846398 0.000000
v 0.528360 -0.854904 0.000000
v -0.523103 0.846398 0.000000
v -0.528360 0.854904 0.000000
v -0.523103 -0.846398 0.000000
v -0.528360 -0.854904 0.000000
v 0.000000 0.523103 -0.846398
v 0.000000 0.528360 -0.854904
v 0.000000 0.523103 0.846398
v 0.000000 0.528360 0.854904
v 0.000000 -0.523103 -0.846398
v 0.000000 -0.528360 -0.854904
v 0.000000 -0.523103 0.846398
v 0.000000 -0.528360 0.854904
v 0.844196 0.007558 -0.524628
v 0.007558 0.524628 -0.844196
v 0.524628 0.844196 -0.007558
v 0.844196 -0.007558 -0.524628
v 0.524628 -0.844196 -0.007558
v 0.007558 -0.524628 -0.844196
v 0.844196 0.007558 0.524628
v 0.524628 0.844196 0.007558
v 0.007558 0.524628 0.844196
v 0.844196 -0.007558 0.524628
v 0.007558 -0.524628 0.844196
v 0.524628 -0.844196 0.007558
v -0.844196 0.007558 -0.524628
v -0.524628 0.844196 -0.007558
v -0.007558 0.524628 -0.844196
v -0.844196 -0.007558 -0.524628
v -0.007558 -0.524628 -0.844196
v -0.524628 -0.844196 -0.007558
v -0.844196 0.007558 0.524628
v -0.007558 0.524628 0.844196
v -0.524628 0.844196 0.007558
v -0.844196 -0.007558 0.524628
v -0.524628 -0.844196 0.007558
v -0.007558 -0.524628 0.844196
v 0.841309 0.000000 -0.529299
v 0.004671 -0.517071 -0.848867
v 0.004671 0.517071 -0.848867
v -0.841309 0.000000 -0.529299
v -0.004671 0.517071 -0.848867
v -0.004671 -0.517071 -0.848867
v 0.841309 0.000000 0.529299
v 0.004671 0.517071 0.848867
v 0.004671 -0.517071 0.848867
v -0.841309 0.000000 0.529299
v -0.004671 -0.517071 0.848867
v -0.004671 0.517071 0.848867
v 0.529299 0.841309 0.000000
v 0.848867 0.004671 0.517071
v 0.848867 0.004671 -0.517071
v 0.529299 -0.841309 0.000000
v 0.848867 -0.004671 -0.517071
v 0.848867 -0.004671 0.517071
v -0.529299 0.841309 0.000000
v -0.848867 0.004671 -0.517071
v -0.848867 0.004671 0.517071
v -0.529299 -0.841309 0.000000
v -0.848867 -0.004671 0.517071
v -0.848867 -0.004671 -0.517071
v 0.000000 0.529299 -0.841309
v -0.517071 0.848867 -0.004671
v 0.517071 0.848867 -0.004671
v 0.000000 0.529299 0.841309
v 0.517071 0.848867 0.004671
v -0.517071 0.848867 0.004671
v 0.000000 -0.529299 -0.841309
v 0.517071 -0.848867 -0.004671
v -0.517071 -0.848867 -0.004671
v 0.000000 -0.529299 0.841309
v -0.517071 -0.848867 0.004671
v 0.517071 -0.848867 0.004671
vn -0.2976 0.1049 0.9489
vn 0.5504 0.8290 -0.0996
vn 0.1049 -0.9489 0.2976
vn 0.8290 0.0996 -0.5504
vn -0.9489 -0.2976 -0.1049
vn 0.0996 0.5504 -0.8290
vn -0.9489 0.2976 -0.1049
vn 0.0996 -0.5504 -0.8290
vn 0.1049 0.9489 0.2976
vn 0.8290 -0.0996 -0.5504
vn -0.2976 -0.1049 0.9489
vn 0.5504 -0.8290 -0.0996
vn -0.9489 -0.2976 0.1049
vn 0.0996 0.5504 0.8290
vn 0.1049 -0.9489 -0.2976
vn 0.8290 0.0996 0.5504
vn -0.2976 0.1049 -0.9489
vn 0.5504 0.8290 0.0996
vn -0.2976 -0.1049 -0.9489
vn 0.5504 -0.8290 0.0996
vn 0.1049 0.9489 -0.2976
vn 0.8290 -0.0996 0.5504
vn -0.9489 0.2976 0.1049
vn 0.0996 -0.5504 0.8290
vn 0.9489 -0.2976 -0.1049
vn -0.0996 0.5504 -0.8290
vn -0.1049 -0.9489 0.2976
vn -0.8290 0.0996 -0.5504
vn 0.2976 0.1049 0.9489
vn -0.5504 0.8290 -0.0996
vn 0.2976 -0.1049 0.9489
vn -0.5504 -0.8290 -0.0996
vn -0.1049 0.9489 0.2976
vn -0.8290 -0.0996 -0.5504
vn 0.9489 0.2976 -0.1049
vn -0.0996 -0.5504 -0.8290
vn 0.2976 0.1049 -0.9489
vn -0.5504 0.8290 0.0996
vn -0.1049 -0.9489 -0.2976
vn -0.8290 0.0996 0.5504
vn 0.9489 -0.2976 0.1049
vn -0.0996 0.5504 0.8290
vn 0.9489 0.2976 0.1049
vn -0.0996 -0.5504 0.8290
vn -0.1049 0.9489 -0.2976
vn -0.8290 -0.0996 0.5504
vn 0.2976 -0.1049 -0.9489
vn -0.5504 -0.8290 0.0996
vn -0.5864 0.6513 0.4816
vn 0.0616 0.4508 -0.8905
vn 0.4673 0.0000 0.8841
vn 0.7909 0.0000 -0.6119
vn -0.5864 -0.6513 0.4816
vn 0.0616 -0.4508 -0.8905
vn 0.5864 -0.6513 0.4816
vn -0.0616 -0.4508 -0.8905
vn -0.4673 0.0000 0.8841
vn -0.7909 0.0000 -0.6119
vn 0.5864 0.6513 0.4816
vn -0.0616 0.4508 -0.8905
vn -0.5864 -0.6513 -0.4816
vn 0.0616 -0.4508 0.8905
vn 0.4673 0.0000 -0.8841
vn 0.7909 0.0000 0.6119
vn -0.5864 0.6513 -0.4816
vn 0.0616 0.4508 0.8905
vn 0.5864 0.6513 -0.4816
vn -0.0616 0.4508 0.8905
vn -0.4673 0.0000 -0.8841
vn -0.7909 0.0000 0.6119
vn 0.5864 -0.6513 -0.4816
vn -0.0616 -0.4508 0.8905
vn -0.4816 -0.5864 -0.6513
vn 0.8905 0.0616 -0.4508
vn -0.8841 0.4673 0.0000
vn 0.6119 0.7909 0.0000
vn -0.4816 -0.5864 0.6513
vn 0.8905 0.0616 0.4508
vn -0.4816 0.5864 0.6513
vn 0.8905 -0.0616 0.4508
vn -0.8841 -0.4673 0.0000
vn 0.6119 -0.7909 0.0000
vn -0.4816 0.5864 -0.6513
vn 0.8905 -0.0616 -0.4508
vn 0.4816 -0.5864 0.6513
vn -0.8905 0.0616 0.4508
vn 0.8841 0.4673 0.0000
vn -0.6119 0.7909 0.0000
vn 0.4816 -0.5864 -0.6513
vn -0.8905 0.0616 -0.4508
vn 0.4816 0.5864 -0.6513
vn -0.8905 -0.0616 -0.4508
vn 0.8841 -0.4673 0.0000
vn -0.6119 -0.7909 0.0000
vn 0.4816 0.5864 0.6513
vn -0.8905 -0.0616 0.4508
vn 0.6513 -0.4816 0.5864
vn 0.4508 0.8905 -0.0616
vn 0.0000 -0.8841 -0.4673
vn 0.0000 0.6119 -0.7909
vn -0.6513 -0.4816 0.5864
vn -0.4508 0.8905 -0.0616
vn -0.6513 -0.4816 -0.5864
vn -0.4508 0.8905 0.0616
vn 0.0000 -0.8841 0.4673
vn 0.0000 0.6119 0.7909
vn 0.6513 -0.4816 -0.5864
vn 0.4508 0.8905 0.0616
vn -0.6513 0.4816 0.5864
vn -0.4508 -0.8905 -0.0616
vn 0.0000 0.8841 -0.4673
vn 0.0000 -0.6119 -0.7909
vn 0.6513 0.4816 0.5864
vn 0.4508 -0.8905 -0.0616
vn 0.6513 0.4816 -0.5864
vn 0.4508 -0.8905 0.0616
vn 0.0000 0.8841 0.4673
vn 0.0000 -0.6119 0.7909
vn -0.6513 0.4816 -0.5864
vn -0.4508 -0.8905 0.0616
usemtl None
s off
f 25//1 26//1 17//1 1//1
f 26//2 25//2 2//2 18//2
f 26//3 27//3 9//3 17//3
f 27//4 26//4 18//4 10//4
f 27//5 25//5 1//5 9//5
f 25//6 27//6 10//6 2//6
f 28//7 29//7 11//7 1//7
f 29//8 28//8 2//8 12//8
f 29//9 30//9 21//9 11//9
f 30//10 29//10 12//10 22//10
f 30//11 28//11 1//11 21//11
f 28//12 30//12 22//12 2//12
f 31//13 32//13 9//13 5//13
f 32//14 31//14 6//14 10//14
f 32//15 33//15 19//15 9//15
f 33//16 32//16 10//16 20//16
f 33//17 31//17 5//17 19//17
f 31//18 33//18 20//18 6//18
f 34//19 35//19 23//19 5//19
f 35//20 34//20 6//20 24//20
f 35//21 36//21 11//21 23//21
f 36//22 35//22 24//22 12//22
f 36//23 34//23 5//23 11//23
f 34//24 36//24 12//24 6//24
f 37//25 38//25 13//25 3//25
f 38//26 37//26 4//26 14//26
f 38//27 39//27 17//27 13//27
f 39//28 38//28 14//28 18//28
f 39//29 37//29 3//29 17//29
f 37//30 39//30 18//30 4//30
f 40//31 41//31 21//31 3//31
f 41//32 40//32 4//32 22//32
f 41//33 42//33 15//33 21//33
f 42//34 41//34 22//34 16//34
f 42//35 40//35 3//35 15//35
f 40//36 42//36 16//36 4//36
f 43//37 44//37 19//37 7//37
f 44//38 43//38 8//38 20//38
f 44//39 45//39 13//39 19//39
f 45//40 44//40 20//40 14//40
f 45//41 43//41 7//41 13//41
f 43//42 45//42 14//42 8//42
f 46//43 47//43 15//43 7//43
f 47//44 46//44 8//44 16//44
f 47//45 48//45 23//45 15//45
f 48//46 47//46 16//46 24//46
f 48//47 46//47 7//47 23//47
f 46//48 48//48 24//48 8//48
f 49//49 50//49 21//49 1//49
f 50//50 49//50 2//50 22//50
f 50//51 51//51 17//51 21//51
f 51//52 50//52 22//52 18//52
f 51//53 49//53 1//53 17//53
f 49//54 51//54 18//54 2//54
f 52//55 53//55 17//55 3//55
f 53//56 52//56 4//56 18//56
f 53//57 54//57 21//57 17//57
f 54//58 53//58 18//58 22//58
f 54//59 52//59 3//59 21//59
f 52//60 54//60 22//60 4//60
f 55//61 56//61 19//61 5//61
f 56//62 55//62 6//62 20//62
f 56//63 57//63 23//63 19//63
f 57//64 56//64 20//64 24//64
f 57//65 55//65 5//65 23//65
f 55//66 57//66 24//66 6//66
f 58//67 59//67 23//67 7//67
f 59//68 58//68 8//68 24//68
f 59//69 60//69 19//69 23//69
f 60//70 59//70 24//70 20//70
f 60//71 58//71 7//71 19//71
f 58//72 60//72 20//72 8//72
f 61//73 62//73 5//73 9//73
f 62//74 61//74 10//74 6//74
f 62//75 63//75 1//75 5//75
f 63//76 62//76 6//76 2//76
f 63//77 61//77 9//77 1//77
f 61//78 63//78 2//78 10//78
f 64//79 65//79 1//79 11//79
f 65//80 64//80 12//80 2//80
f 65//81 66//81 5//81 1//81
f 66//82 65//82 2//82 6//82
f 66//83 64//83 11//83 5//83
f 64//84 66//84 6//84 12//84
f 67//85 68//85 3//85 13//85
f 68//86 67//86 14//86 4//86
f 68//87 69//87 7//87 3//87
f 69//88 68//88 4//88 8//88
f 69//89 67//89 13//89 7//89
f 67//90 69//90 8//90 14//90
f 70//91 71//91 7//91 15//91
f 71//92 70//92 16//92 8//92
f 71//93 72//93 3//93 7//93
f 72//94 71//94 8//94 4//94
f 72//95 70//95 15//95 3//95
f 70//96 72//96 4//96 16//96
f 73//97 74//97 13//97 17//97
f 74//98 73//98 18//98 14//98
f 74//99 75//99 9//99 13//99
f 75//100 74//100 14//100 10//100
f 75//101 73//101 17//101 9//101
f 73//102 75//102 10//102 18//102
f 76//103 77//103 9//103 19//103
f 77//104 76//104 20//104 10//104
f 77//105 78//105 13//105 9//105
f 78//106 77//106 10//106 14//106
f 78//107 76//107 19//107 13//107
f 76//108 78//108 14//108 20//108
f 79//109 80//109 11//109 21//109
f 80//110 79//110 22//110 12//110
f 80//111 81//111 15//111 11//111
f 81//112 80//112 12//112 16//112
f 81//113 79//113 21//113 15//113
f 79//114 81//114 16//114 22//114
f 82//115 83//115 15//115 23//115
f 83//116 82//116 24//116 16//116
f 83//117 84//117 11//117 15//117
f 84//118 83//118 16//118 12//118
f 84//119 82//119 23//119 11//119
f 82//120 84//120 12//120 24//120
