0
SECTION
2
ENTITIES
0
3DFACE
8
0
10
1.000000
20
0.000000
30
0.000000
11
0.985233
21
0.097037
31
0.000000
12
0.990000
22
0.000000
32
0.000000
13
0.990000
23
0.000000
33
0.000000
0
3DFACE
8
0
10
0.995185
20
0.098017
30
0.000000
11
0.985233
21
0.097037
31
0.000000
12
1.000000
22
0.000000
32
0.000000
13
1.000000
23
0.000000
33
0.000000
0
3DFACE
8
0
10
0.995185
20
0.098017
30
0.000000
11
0.970977
21
0.193139
31
0.000000
12
0.985233
22
0.097037
32
0.000000
13
0.985233
23
0.097037
33
0.000000
0
3DFACE
8
0
10
0.980785
20
0.195090
30
0.000000
11
0.970977
21
0.193139
31
0.000000
12
0.995185
22
0.098017
32
0.000000
13
0.995185
23
0.098017
33
0.000000
0
3DFACE
8
0
10
0.980785
20
0.195090
30
0.000000
11
0.947371
21
0.287382
31
0.000000
12
0.970977
22
0.193139
32
0.000000
13
0.970977
23
0.193139
33
0.000000
0
3DFACE
8
0
10
0.956940
20
0.290285
30
0.000000
11
0.947371
21
0.287382
31
0.000000
12
0.980785
22
0.195090
32
0.000000
13
0.980785
23
0.195090
33
0.000000
0
3DFACE
8
0
10
0.956940
20
0.290285
30
0.000000
11
0.914641
21
0.378857
31
0.000000
12
0.947371
22
0.287382
32
0.000000
13
0.947371
23
0.287382
33
0.000000
0
3DFACE
8
0
10
0.923880
20
0.382683
30
0.000000
11
0.914641
21
0.378857
31
0.000000
12
0.956940
22
0.290285
32
0.000000
13
0.956940
23
0.290285
33
0.000000
0
3DFACE
8
0
10
0.923880
20
0.382683
30
0.000000
11
0.873102
21
0.466683
31
0.000000
12
0.914641
22
0.378857
32
0.000000
13
0.914641
23
0.378857
33
0.000000
0
3DFACE
8
0
10
0.881921
20
0.471397
30
0.000000
11
0.873102
21
0.466683
31
0.000000
12
0.923880
22
0.382683
32
0.000000
13
0.923880
23
0.382683
33
0.000000
0
3DFACE
8
0
10
0.881921
20
0.471397
30
0.000000
11
0.823155
21
0.550015
31
0.000000
12
0.873102
22
0.466683
32
0.000000
13
0.873102
23
0.466683
33
0.000000
0
3DFACE
8
0
10
0.831470
20
0.555570
30
0.000000
11
0.823155
21
0.550015
31
0.000000
12
0.881921
22
0.471397
32
0.000000
13
0.881921
23
0.471397
33
0.000000
0
3DFACE
8
0
10
0.831470
20
0.555570
30
0.000000
11
0.765280
21
0.628049
31
0.000000
12
0.823155
22
0.550015
32
0.000000
13
0.823155
23
0.550015
33
0.000000
0
3DFACE
8
0
10
0.773010
20
0.634393
30
0.000000
11
0.765280
21
0.628049
31
0.000000
12
0.831470
22
0.555570
32
0.000000
13
0.831470
23
0.555570
33
0.000000
0
3DFACE
8
0
10
0.773010
20
0.634393
30
0.000000
11
0.700036
21
0.700036
31
0.000000
12
0.765280
22
0.628049
32
0.000000
13
0.765280
23
0.628049
33
0.000000
0
3DFACE
8
0
10
0.707107
20
0.707107
30
0.000000
11
0.700036
21
0.700036
31
0.000000
12
0.773010
22
0.634393
32
0.000000
13
0.773010
23
0.634393
33
0.000000
0
3DFACE
8
0
10
0.707107
20
0.707107
30
0.000000
11
0.628049
21
0.765280
31
0.000000
12
0.700036
22
0.700036
32
0.000000
13
0.700036
23
0.700036
33
0.000000
0
3DFACE
8
0
10
0.634393
20
0.773010
30
0.000000
11
0.628049
21
0.765280
31
0.000000
12
0.707107
22
0.707107
32
0.000000
13
0.707107
23
0.707107
33
0.000000
0
3DFACE
8
0
10
0.634393
20
0.773010
30
0.000000
11
0.550015
21
0.823155
31
0.000000
12
0.628049
22
0.765280
32
0.000000
13
0.628049
23
0.765280
33
0.000000
0
3DFACE
8
0
10
0.555570
20
0.831470
30
0.000000
11
0.550015
21
0.823155
31
0.000000
12
0.634393
22
0.773010
32
0.000000
13
0.634393
23
0.773010
33
0.000000
0
3DFACE
8
0
10
0.555570
20
0.831470
30
0.000000
11
0.466683
21
0.873102
31
0.000000
12
0.550015
22
0.823155
32
0.000000
13
0.550015
23
0.823155
33
0.000000
0
3DFACE
8
0
10
0.471397
20
0.881921
30
0.000000
11
0.466683
21
0.873102
31
0.000000
12
0.555570
22
0.831470
32
0.000000
13
0.555570
23
0.831470
33
0.000000
0
3DFACE
8
0
10
0.471397
20
0.881921
30
0.000000
11
0.378857
21
0.914641
31
0.000000
12
0.466683
22
0.873102
32
0.000000
13
0.466683
23
0.873102
33
0.000000
0
3DFACE
8
0
10
0.382683
20
0.923880
30
0.000000
11
0.378857
21
0.914641
31
0.000000
12
0.471397
22
0.881921
32
0.000000
13
0.471397
23
0.881921
33
0.000000
0
3DFACE
8
0
10
0.382683
20
0.923880
30
0.000000
11
0.287382
21
0.947371
31
0.000000
12
0.378857
22
0.914641
32
0.000000
13
0.378857
23
0.914641
33
0.000000
0
3DFACE
8
0
10
0.290285
20
0.956940
30
0.000000
11
0.287382
21
0.947371
31
0.000000
12
0.382683
22
0.923880
32
0.000000
13
0.382683
23
0.923880
33
0.000000
0
3DFACE
8
0
10
0.290285
20
0.956940
30
0.000000
11
0.193139
21
0.970977
31
0.000000
12
0.287382
22
0.947371
32
0.000000
13
0.287382
23
0.947371
33
0.000000
0
3DFACE
8
0
10
0.195090
20
0.980785
30
0.000000
11
0.193139
21
0.970977
31
0.000000
12
0.290285
22
0.956940
32
0.000000
13
0.290285
23
0.956940
33
0.000000
0
3DFACE
8
0
10
0.195090
20
0.980785
30
0.000000
11
0.097037
21
0.985233
31
0.000000
12
0.193139
22
0.970977
32
0.000000
13
0.193139
23
0.970977
33
0.000000
0
3DFACE
8
0
10
0.098017
20
0.995185
30
0.000000
11
0.097037
21
0.985233
31
0.000000
12
0.195090
22
0.980785
32
0.000000
13
0.195090
23
0.980785
33
0.000000
0
3DFACE
8
0
10
0.098017
20
0.995185
30
0.000000
11
0.000000
21
0.990000
31
0.000000
12
0.097037
22
0.985233
32
0.000000
13
0.097037
23
0.985233
33
0.000000
0
3DFACE
8
0
10
0.000000
20
1.000000
30
0.000000
11
0.000000
21
0.990000
31
0.000000
12
0.098017
22
0.995185
32
0.000000
13
0.098017
23
0.995185
33
0.000000
0
3DFACE
8
0
10
0.000000
20
1.000000
30
0.000000
11
-0.097037
21
0.985233
31
0.000000
12
0.000000
22
0.990000
32
0.000000
13
0.000000
23
0.990000
33
0.000000
0
3DFACE
8
0
10
-0.098017
20
0.995185
30
0.000000
11
-0.097037
21
0.985233
31
0.000000
12
0.000000
22
1.000000
32
0.000000
13
0.000000
23
1.000000
33
0.000000
0
3DFACE
8
0
10
-0.098017
20
0.995185
30
0.000000
11
-0.193139
21
0.970977
31
0.000000
12
-0.097037
22
0.985233
32
0.000000
13
-0.097037
23
0.985233
33
0.000000
0
3DFACE
8
0
10
-0.195090
20
0.980785
30
0.000000
11
-0.193139
21
0.970977
31
0.000000
12
-0.098017
22
0.995185
32
0.000000
13
-0.098017
23
0.995185
33
0.000000
0
3DFACE
8
0
10
-0.195090
20
0.980785
30
0.000000
11
-0.287382
21
0.947371
31
0.000000
12
-0.193139
22
0.970977
32
0.000000
13
-0.193139
23
0.970977
33
0.000000
0
3DFACE
8
0
10
-0.290285
20
0.956940
30
0.000000
11
-0.287382
21
0.947371
31
0.000000
12
-0.195090
22
0.980785
32
0.000000
13
-0.195090
23
0.980785
33
0.000000
0
3DFACE
8
0
10
-0.290285
20
0.956940
30
0.000000
11
-0.378857
21
0.914641
31
0.000000
12
-0.287382
22
0.947371
32
0.000000
13
-0.287382
23
0.947371
33
0.000000
0
3DFACE
8
0
10
-0.382683
20
0.923880
30
0.000000
11
-0.378857
21
0.914641
31
0.000000
12
-0.290285
22
0.956940
32
0.000000
13
-0.290285
23
0.956940
33
0.000000
0
3DFACE
8
0
10
-0.382683
20
0.923880
30
0.000000
11
-0.466683
21
0.873102
31
0.000000
12
-0.378857
22
0.914641
32
0.000000
13
-0.378857
23
0.914641
33
0.000000
0
3DFACE
8
0
10
-0.471397
20
0.881921
30
0.000000
11
-0.466683
21
0.873102
31
0.000000
12
-0.382683
22
0.923880
32
0.000000
13
-0.382683
23
0.923880
33
0.000000
0
3DFACE
8
0
10
-0.471397
20
0.881921
30
0.000000
11
-0.550015
21
0.823155
31
0.000000
12
-0.466683
22
0.873102
32
0.000000
13
-0.466683
23
0.873102
33
0.000000
0
3DFACE
8
0
10
-0.555570
20
0.831470
30
0.000000
11
-0.550015
21
0.823155
31
0.000000
12
-0.471397
22
0.881921
32
0.000000
13
-0.471397
23
0.881921
33
0.000000
0
3DFACE
8
0
10
-0.555570
20
0.831470
30
0.000000
11
-0.628049
21
0.765280
31
0.000000
12
-0.550015
22
0.823155
32
0.000000
13
-0.550015
23
0.823155
33
0.000000
0
3DFACE
8
0
10
-0.634393
20
0.773010
30
0.000000
11
-0.628049
21
0.765280
31
0.000000
12
-0.555570
22
0.831470
32
0.000000
13
-0.555570
23
0.831470
33
0.000000
0
3DFACE
8
0
10
-0.634393
20
0.773010
30
0.000000
11
-0.700036
21
0.700036
31
0.000000
12
-0.628049
22
0.765280
32
0.000000
13
-0.628049
23
0.765280
33
0.000000
0
3DFACE
8
0
10
-0.707107
20
0.707107
30
0.000000
11
-0.700036
21
0.700036
31
0.000000
12
-0.634393
22
0.773010
32
0.000000
13
-0.634393
23
0.773010
33
0.000000
0
3DFACE
8
0
10
-0.707107
20
0.707107
30
0.000000
11
-0.765280
21
0.628049
31
0.000000
12
-0.700036
22
0.700036
32
0.000000
13
-0.700036
23
0.700036
33
0.000000
0
3DFACE
8
0
10
-0.773010
20
0.634393
30
0.000000
11
-0.765280
21
0.628049
31
0.000000
12
-0.707107
22
0.707107
32
0.000000
13
-0.707107
23
0.707107
33
0.000000
0
3DFACE
8
0
10
-0.773010
20
0.634393
30
0.000000
11
-0.823155
21
0.550015
31
0.000000
12
-0.765280
22
0.628049
32
0.000000
13
-0.765280
23
0.628049
33
0.000000
0
3DFACE
8
0
10
-0.831470
20
0.555570
30
0.000000
11
-0.823155
21
0.550015
31
0.000000
12
-0.773010
22
0.634393
32
0.000000
13
-0.773010
23
0.634393
33
0.000000
0
3DFACE
8
0
10
-0.831470
20
0.555570
30
0.000000
11
-0.873102
21
0.466683
31
0.000000
12
-0.823155
22
0.550015
32
0.000000
13
-0.823155
23
0.550015
33
0.000000
0
3DFACE
8
0
10
-0.881921
20
0.471397
30
0.000000
11
-0.873102
21
0.466683
31
0.000000
12
-0.831470
22
0.555570
32
0.000000
13
-0.831470
23
0.555570
33
0.000000
0
3DFACE
8
0
10
-0.881921
20
0.471397
30
0.000000
11
-0.914641
21
0.378857
31
0.000000
12
-0.873102
22
0.466683
32
0.000000
13
-0.873102
23
0.466683
33
0.000000
0
3DFACE
8
0
10
-0.923880
20
0.382683
30
0.000000
11
-0.914641
21
0.378857
31
0.000000
12
-0.881921
22
0.471397
32
0.000000
13
-0.881921
23
0.471397
33
0.000000
0
3DFACE
8
0
10
-0.923880
20
0.382683
30
0.000000
11
-0.947371
21
0.287382
31
0.000000
12
-0.914641
22
0.378857
32
0.000000
13
-0.914641
23
0.378857
33
0.000000
0
3DFACE
8
0
10
-0.956940
20
0.290285
30
0.000000
11
-0.947371
21
0.287382
31
0.000000
12
-0.923880
22
0.382683
32
0.000000
13
-0.923880
23
0.382683
33
0.000000
0
3DFACE
8
0
10
-0.956940
20
0.290285
30
0.000000
11
-0.970977
21
0.193139
31
0.000000
12
-0.947371
22
0.287382
32
0.000000
13
-0.947371
23
0.287382
33
0.000000
0
3DFACE
8
0
10
-0.980785
20
0.195090
30
0.000000
11
-0.970977
21
0.193139
31
0.000000
12
-0.956940
22
0.290285
32
0.000000
13
-0.956940
23
0.290285
33
0.000000
0
3DFACE
8
0
10
-0.980785
20
0.195090
30
0.000000
11
-0.985233
21
0.097037
31
0.000000
12
-0.970977
22
0.193139
32
0.000000
13
-0.970977
23
0.193139
33
0.000000
0
3DFACE
8
0
10
-0.995185
20
0.098017
30
0.000000
11
-0.985233
21
0.097037
31
0.000000
12
-0.980785
22
0.195090
32
0.000000
13
-0.980785
23
0.195090
33
0.000000
0
3DFACE
8
0
10
-0.995185
20
0.098017
30
0.000000
11
-0.990000
21
0.000000
31
0.000000
12
-0.985233
22
0.097037
32
0.000000
13
-0.985233
23
0.097037
33
0.000000
0
3DFACE
8
0
10
-1.000000
20
0.000000
30
0.000000
11
-0.990000
21
0.000000
31
0.000000
12
-0.995185
22
0.098017
32
0.000000
13
-0.995185
23
0.098017
33
0.000000
0
3DFACE
8
0
10
-1.000000
20
0.000000
30
0.000000
11
-0.985233
21
-0.097037
31
0.000000
12
-0.990000
22
0.000000
32
0.000000
13
-0.990000
23
0.000000
33
0.000000
0
3DFACE
8
0
10
-0.995185
20
-0.098017
30
0.000000
11
-0.985233
21
-0.097037
31
0.000000
12
-1.000000
22
0.000000
32
0.000000
13
-1.000000
23
0.000000
33
0.000000
0
3DFACE
8
0
10
-0.995185
20
-0.098017
30
0.000000
11
-0.970977
21
-0.193139
31
0.000000
12
-0.985233
22
-0.097037
32
0.000000
13
-0.985233
23
-0.097037
33
0.000000
0
3DFACE
8
0
10
-0.980785
20
-0.195090
30
0.000000
11
-0.970977
21
-0.193139
31
0.000000
12
-0.995185
22
-0.098017
32
0.000000
13
-0.995185
23
-0.098017
33
0.000000
0
3DFACE
8
0
10
-0.980785
20
-0.195090
30
0.000000
11
-0.947371
21
-0.287382
31
0.000000
12
-0.970977
22
-0.193139
32
0.000000
13
-0.970977
23
-0.193139
33
0.000000
0
3DFACE
8
0
10
-0.956940
20
-0.290285
30
0.000000
11
-0.947371
21
-0.287382
31
0.000000
12
-0.980785
22
-0.195090
32
0.000000
13
-0.980785
23
-0.195090
33
0.000000
0
3DFACE
8
0
10
-0.956940
20
-0.290285
30
0.000000
11
-0.914641
21
-0.378857
31
0.000000
12
-0.947371
22
-0.287382
32
0.000000
13
-0.947371
23
-0.287382
33
0.000000
0
3DFACE
8
0
10
-0.923880
20
-0.382683
30
0.000000
11
-0.914641
21
-0.378857
31
0.000000
12
-0.956940
22
-0.290285
32
0.000000
13
-0.956940
23
-0.290285
33
0.000000
0
3DFACE
8
0
10
-0.923880
20
-0.382683
30
0.000000
11
-0.873102
21
-0.466683
31
0.000000
12
-0.914641
22
-0.378857
32
0.000000
13
-0.914641
23
-0.378857
33
0.000000
0
3DFACE
8
0
10
-0.881921
20
-0.471397
30
0.000000
11
-0.873102
21
-0.466683
31
0.000000
12
-0.923880
22
-0.382683
32
0.000000
13
-0.923880
23
-0.382683
33
0.000000
0
3DFACE
8
0
10
-0.881921
20
-0.471397
30
0.000000
11
-0.823155
21
-0.550015
31
0.000000
12
-0.873102
22
-0.466683
32
0.000000
13
-0.873102
23
-0.466683
33
0.000000
0
3DFACE
8
0
10
-0.831470
20
-0.555570
30
0.000000
11
-0.823155
21
-0.550015
31
0.000000
12
-0.881921
22
-0.471397
32
0.000000
13
-0.881921
23
-0.471397
33
0.000000
0
3DFACE
8
0
10
-0.831470
20
-0.555570
30
0.000000
11
-0.765280
21
-0.628049
31
0.000000
12
-0.823155
22
-0.550015
32
0.000000
13
-0.823155
23
-0.550015
33
0.000000
0
3DFACE
8
0
10
-0.773010
20
-0.634393
30
0.000000
11
-0.765280
21
-0.628049
31
0.000000
12
-0.831470
22
-0.555570
32
0.000000
13
-0.831470
23
-0.555570
33
0.000000
0
3DFACE
8
0
10
-0.773010
20
-0.634393
30
0.000000
11
-0.700036
21
-0.700036
31
0.000000
12
-0.765280
22
-0.628049
32
0.000000
13
-0.765280
23
-0.628049
33
0.000000
0
3DFACE
8
0
10
-0.707107
20
-0.707107
30
0.000000
11
-0.700036
21
-0.700036
31
0.000000
12
-0.773010
22
-0.634393
32
0.000000
13
-0.773010
23
-0.634393
33
0.000000
0
3DFACE
8
0
10
-0.707107
20
-0.707107
30
0.000000
11
-0.628049
21
-0.765280
31
0.000000
12
-0.700036
22
-0.700036
32
0.000000
13
-0.700036
23
-0.700036
33
0.000000
0
3DFACE
8
0
10
-0.634393
20
-0.773010
30
0.000000
11
-0.628049
21
-0.765280
31
0.000000
12
-0.707107
22
-0.707107
32
0.000000
13
-0.707107
23
-0.707107
33
0.000000
0
3DFACE
8
0
10
-0.634393
20
-0.773010
30
0.000000
11
-0.550015
21
-0.823155
31
0.000000
12
-0.628049
22
-0.765280
32
0.000000
13
-0.628049
23
-0.765280
33
0.000000
0
3DFACE
8
0
10
-0.555570
20
-0.831470
30
0.000000
11
-0.550015
21
-0.823155
31
0.000000
12
-0.634393
22
-0.773010
32
0.000000
13
-0.634393
23
-0.773010
33
0.000000
0
3DFACE
8
0
10
-0.555570
20
-0.831470
30
0.000000
11
-0.466683
21
-0.873102
31
0.000000
12
-0.550015
22
-0.823155
32
0.000000
13
-0.550015
23
-0.823155
33
0.000000
0
3DFACE
8
0
10
-0.471397
20
-0.881921
30
0.000000
11
-0.466683
21
-0.873102
31
0.000000
12
-0.555570
22
-0.831470
32
0.000000
13
-0.555570
23
-0.831470
33
0.000000
0
3DFACE
8
0
10
-0.471397
20
-0.881921
30
0.000000
11
-0.378857
21
-0.914641
31
0.000000
12
-0.466683
22
-0.873102
32
0.000000
13
-0.466683
23
-0.873102
33
0.000000
0
3DFACE
8
0
10
-0.382683
20
-0.923880
30
0.000000
11
-0.378857
21
-0.914641
31
0.000000
12
-0.471397
22
-0.881921
32
0.000000
13
-0.471397
23
-0.881921
33
0.000000
0
3DFACE
8
0
10
-0.382683
20
-0.923880
30
0.000000
11
-0.287382
21
-0.947371
31
0.000000
12
-0.378857
22
-0.914641
32
0.000000
13
-0.378857
23
-0.914641
33
0.000000
0
3DFACE
8
0
10
-0.290285
20
-0.956940
30
0.000000
11
-0.287382
21
-0.947371
31
0.000000
12
-0.382683
22
-0.923880
32
0.000000
13
-0.382683
23
-0.923880
33
0.000000
0
3DFACE
8
0
10
-0.290285
20
-0.956940
30
0.000000
11
-0.193139
21
-0.970977
31
0.000000
12
-0.287382
22
-0.947371
32
0.000000
13
-0.287382
23
-0.947371
33
0.000000
0
3DFACE
8
0
10
-0.195090
20
-0.980785
30
0.000000
11
-0.193139
21
-0.970977
31
0.000000
12
-0.290285
22
-0.956940
32
0.000000
13
-0.290285
23
-0.956940
33
0.000000
0
3DFACE
8
0
10
-0.195090
20
-0.980785
30
0.000000
11
-0.097037
21
-0.985233
31
0.000000
12
-0.193139
22
-0.970977
32
0.000000
13
-0.193139
23
-0.970977
33
0.000000
0
3DFACE
8
0
10
-0.098017
20
-0.995185
30
0.000000
11
-0.097037
21
-0.985233
31
0.000000
12
-0.195090
22
-0.980785
32
0.000000
13
-0.195090
23
-0.980785
33
0.000000
0
3DFACE
8
0
10
-0.098017
20
-0.995185
30
0.000000
11
-0.000000
21
-0.990000
31
0.000000
12
-0.097037
22
-0.985233
32
0.000000
13
-0.097037
23
-0.985233
33
0.000000
0
3DFACE
8
0
10
-0.000000
20
-1.000000
30
0.000000
11
-0.000000
21
-0.990000
31
0.000000
12
-0.098017
22
-0.995185
32
0.000000
13
-0.098017
23
-0.995185
33
0.000000
0
3DFACE
8
0
10
-0.000000
20
-1.000000
30
0.000000
11
0.097037
21
-0.985233
31
0.000000
12
-0.000000
22
-0.990000
32
0.000000
13
-0.000000
23
-0.990000
33
0.000000
0
3DFACE
8
0
10
0.098017
20
-0.995185
30
0.000000
11
0.097037
21
-0.985233
31
0.000000
12
-0.000000
22
-1.000000
32
0.000000
13
-0.000000
23
-1.000000
33
0.000000
0
3DFACE
8
0
10
0.098017
20
-0.995185
30
0.000000
11
0.193139
21
-0.970977
31
0.000000
12
0.097037
22
-0.985233
32
0.000000
13
0.097037
23
-0.985233
33
0.000000
0
3DFACE
8
0
10
0.195090
20
-0.980785
30
0.000000
11
0.193139
21
-0.970977
31
0.000000
12
0.098017
22
-0.995185
32
0.000000
13
0.098017
23
-0.995185
33
0.000000
0
3DFACE
8
0
10
0.195090
20
-0.980785
30
0.000000
11
0.287382
21
-0.947371
31
0.000000
12
0.193139
22
-0.970977
32
0.000000
13
0.193139
23
-0.970977
33
0.000000
0
3DFACE
8
0
10
0.290285
20
-0.956940
30
0.000000
11
0.287382
21
-0.947371
31
0.000000
12
0.195090
22
-0.980785
32
0.000000
13
0.195090
23
-0.980785
33
0.000000
0
3DFACE
8
0
10
0.290285
20
-0.956940
30
0.000000
11
0.378857
21
-0.914641
31
0.000000
12
0.287382
22
-0.947371
32
0.000000
13
0.287382
23
-0.947371
33
0.000000
0
3DFACE
8
0
10
0.382683
20
-0.923880
30
0.000000
11
0.378857
21
-0.914641
31
0.000000
12
0.290285
22
-0.956940
32
0.000000
13
0.290285
23
-0.956940
33
0.000000
0
3DFACE
8
0
10
0.382683
20
-0.923880
30
0.000000
11
0.466683
21
-0.873102
31
0.000000
12
0.378857
22
-0.914641
32
0.000000
13
0.378857
23
-0.914641
33
0.000000
0
3DFACE
8
0
10
0.471397
20
-0.881921
30
0.000000
11
0.466683
21
-0.873102
31
0.000000
12
0.382683
22
-0.923880
32
0.000000
13
0.382683
23
-0.923880
33
0.000000
0
3DFACE
8
0
10
0.471397
20
-0.881921
30
0.000000
11
0.550015
21
-0.823155
31
0.000000
12
0.466683
22
-0.873102
32
0.000000
13
0.466683
23
-0.873102
33
0.000000
0
3DFACE
8
0
10
0.555570
20
-0.831470
30
0.000000
11
0.550015
21
-0.823155
31
0.000000
12
0.471397
22
-0.881921
32
0.000000
13
0.471397
23
-0.881921
33
0.000000
0
3DFACE
8
0
10
0.555570
20
-0.831470
30
0.000000
11
0.628049
21
-0.765280
31
0.000000
12
0.550015
22
-0.823155
32
0.000000
13
0.550015
23
-0.823155
33
0.000000
0
3DFACE
8
0
10
0.634393
20
-0.773010
30
0.000000
11
0.628049
21
-0.765280
31
0.000000
12
0.555570
22
-0.831470
32
0.000000
13
0.555570
23
-0.831470
33
0.000000
0
3DFACE
8
0
10
0.634393
20
-0.773010
30
0.000000
11
0.700036
21
-0.700036
31
0.000000
12
0.628049
22
-0.765280
32
0.000000
13
0.628049
23
-0.765280
33
0.000000
0
3DFACE
8
0
10
0.707107
20
-0.707107
30
0.000000
11
0.700036
21
-0.700036
31
0.000000
12
0.634393
22
-0.773010
32
0.000000
13
0.634393
23
-0.773010
33
0.000000
0
3DFACE
8
0
10
0.707107
20
-0.707107
30
0.000000
11
0.765280
21
-0.628049
31
0.000000
12
0.700036
22
-0.700036
32
0.000000
13
0.700036
23
-0.700036
33
0.000000
0
3DFACE
8
0
10
0.773010
20
-0.634393
30
0.000000
11
0.765280
21
-0.628049
31
0.000000
12
0.707107
22
-0.707107
32
0.000000
13
0.707107
23
-0.707107
33
0.000000
0
3DFACE
8
0
10
0.773010
20
-0.634393
30
0.000000
11
0.823155
21
-0.550015
31
0.000000
12
0.765280
22
-0.628049
32
0.000000
13
0.765280
23
-0.628049
33
0.000000
0
3DFACE
8
0
10
0.831470
20
-0.555570
30
0.000000
11
0.823155
21
-0.550015
31
0.000000
12
0.773010
22
-0.634393
32
0.000000
13
0.773010
23
-0.634393
33
0.000000
0
3DFACE
8
0
10
0.831470
20
-0.555570
30
0.000000
11
0.873102
21
-0.466683
31
0.000000
12
0.823155
22
-0.550015
32
0.000000
13
0.823155
23
-0.550015
33
0.000000
0
3DFACE
8
0
10
0.881921
20
-0.471397
30
0.000000
11
0.873102
21
-0.466683
31
0.000000
12
0.831470
22
-0.555570
32
0.000000
13
0.831470
23
-0.555570
33
0.000000
0
3DFACE
8
0
10
0.881921
20
-0.471397
30
0.000000
11
0.914641
21
-0.378857
31
0.000000
12
0.873102
22
-0.466683
32
0.000000
13
0.873102
23
-0.466683
33
0.000000
0
3DFACE
8
0
10
0.923880
20
-0.382683
30
0.000000
11
0.914641
21
-0.378857
31
0.000000
12
0.881921
22
-0.471397
32
0.000000
13
0.881921
23
-0.471397
33
0.000000
0
3DFACE
8
0
10
0.923880
20
-0.382683
30
0.000000
11
0.947371
21
-0.287382
31
0.000000
12
0.914641
22
-0.378857
32
0.000000
13
0.914641
23
-0.378857
33
0.000000
0
3DFACE
8
0
10
0.956940
20
-0.290285
30
0.000000
11
0.947371
21
-0.287382
31
0.000000
12
0.923880
22
-0.382683
32
0.000000
13
0.923880
23
-0.382683
33
0.000000
0
3DFACE
8
0
10
0.956940
20
-0.290285
30
0.000000
11
0.970977
21
-0.193139
31
0.000000
12
0.947371
22
-0.287382
32
0.000000
13
0.947371
23
-0.287382
33
0.000000
0
3DFACE
8
0
10
0.980785
20
-0.195090
30
0.000000
11
0.970977
21
-0.193139
31
0.000000
12
0.956940
22
-0.290285
32
0.000000
13
0.956940
23
-0.290285
33
0.000000
0
3DFACE
8
0
10
0.980785
20
-0.195090
30
0.000000
11
0.985233
21
-0.097037
31
0.000000
12
0.970977
22
-0.193139
32
0.000000
13
0.970977
23
-0.193139
33
0.000000
0
3DFACE
8
0
10
0.995185
20
-0.098017
30
0.000000
11
0.985233
21
-0.097037
31
0.000000
12
0.980785
22
-0.195090
32
0.000000
13
0.980785
23
-0.195090
33
0.000000
0
3DFACE
8
0
10
0.995185
20
-0.098017
30
0.000000
11
0.990000
21
0.000000
31
0.000000
12
0.985233
22
-0.097037
32
0.000000
13
0.985233
23
-0.097037
33
0.000000
0
3DFACE
8
0
10
1.000000
20
0.000000
30
0.000000
11
0.990000
21
0.000000
31
0.000000
12
0.995185
22
-0.098017
32
0.000000
13
0.995185
23
-0.098017
33
0.000000
0
ENDSEC
0
EOF
